<?xml version="1.0" standalone="no"?>
<!DOCTYPE svg PUBLIC "-//W3C//DTD SVG 20010904//EN"
 "http://www.w3.org/TR/2001/REC-SVG-20010904/DTD/svg10.dtd">
<svg version="1.0" xmlns="http://www.w3.org/2000/svg"
 width="50.000000pt" height="50.000000pt" viewBox="0 0 50.000000 50.000000"
 preserveAspectRatio="xMidYMid meet">

<g transform="translate(0.000000,50.000000) scale(0.100000,-0.100000)"
fill="#000000" stroke="none">
<path d="M312 464 c-26 -18 -52 -65 -52 -94 0 -34 28 -78 60 -95 49 -25 88
-19 126 19 28 28 34 41 34 78 -1 66 -44 108 -112 108 -19 0 -44 -7 -56 -16z
m78 -49 c0 -20 5 -25 25 -25 18 0 25 -5 25 -20 0 -15 -7 -20 -25 -20 -20 0
-25 -5 -25 -25 0 -16 -6 -25 -15 -25 -9 0 -15 9 -15 24 0 19 -6 25 -27 28 -37
4 -37 32 0 36 21 3 27 9 27 28 0 15 6 24 15 24 9 0 15 -9 15 -25z"/>
<path d="M20 396 c0 -9 12 -16 32 -18 l32 -3 32 -129 c18 -70 36 -132 41 -137
15 -15 225 -7 231 9 3 9 -23 12 -106 12 -91 0 -111 3 -116 16 -3 9 -6 17 -6
20 0 2 55 5 122 6 l122 3 7 27 c7 27 6 28 -35 28 -57 0 -105 33 -131 88 l-20
43 -54 -2 c-51 -3 -55 -1 -64 24 -7 23 -14 27 -48 27 -27 0 -39 -4 -39 -14z"/>
<path d="M170 65 c-7 -8 -10 -22 -6 -30 7 -19 45 -19 52 0 6 15 -11 45 -26 45
-4 0 -13 -7 -20 -15z"/>
<path d="M332 71 c-20 -12 -10 -46 14 -49 25 -4 40 24 23 44 -13 16 -19 17
-37 5z"/>
</g>
</svg>
