<?xml version="1.0" standalone="no"?>
<!DOCTYPE svg PUBLIC "-//W3C//DTD SVG 20010904//EN"
 "http://www.w3.org/TR/2001/REC-SVG-20010904/DTD/svg10.dtd">
<svg version="1.0" xmlns="http://www.w3.org/2000/svg"
 width="50.000000pt" height="50.000000pt" viewBox="0 0 50.000000 50.000000"
 preserveAspectRatio="xMidYMid meet">

<g transform="translate(0.000000,50.000000) scale(0.100000,-0.100000)"
fill="#000000" stroke="none">
<path d="M156 439 c-46 -54 -31 -94 69 -187 76 -71 74 -71 158 7 57 53 77 88
77 134 0 68 -85 102 -142 57 -25 -19 -26 -19 -43 0 -29 32 -87 27 -119 -11z
m113 -15 l31 -26 31 26 c37 31 62 33 89 6 40 -40 14 -96 -80 -175 l-42 -35
-49 40 c-84 71 -108 131 -69 170 27 27 52 25 89 -6z"/>
<path d="M65 201 c-29 -6 -30 -8 -30 -66 l0 -60 55 -5 c30 -3 70 -14 89 -24
25 -13 56 -18 113 -18 44 0 81 2 82 4 1 2 24 31 50 66 26 34 46 70 44 80 -5
28 -47 27 -79 -3 -24 -24 -34 -27 -77 -23 -30 3 -63 15 -87 31 -41 28 -90 33
-160 18z m143 -37 c25 -15 68 -32 96 -39 l51 -12 -50 -8 c-42 -7 -55 -5 -87
14 -64 36 -83 22 -22 -17 29 -19 46 -22 102 -20 60 3 68 5 79 28 15 31 69 84
60 58 -3 -10 -23 -40 -44 -68 l-37 -50 -68 0 c-48 0 -76 5 -100 19 -18 11 -54
23 -80 26 -46 7 -48 9 -48 40 0 27 5 35 28 43 45 17 73 13 120 -14z"/>
</g>
</svg>
