<?xml version="1.0" standalone="no"?>
<!DOCTYPE svg PUBLIC "-//W3C//DTD SVG 20010904//EN"
 "http://www.w3.org/TR/2001/REC-SVG-20010904/DTD/svg10.dtd">
<svg version="1.0" xmlns="http://www.w3.org/2000/svg"
 width="50.000000pt" height="50.000000pt" viewBox="0 0 50.000000 50.000000"
 preserveAspectRatio="xMidYMid meet">

<g transform="translate(0.000000,50.000000) scale(0.100000,-0.100000)"
fill="#000000" stroke="none">
<path d="M72 388 c-12 -12 -16 -96 -6 -135 6 -22 10 -23 118 -21 l111 2 -105
5 -105 6 -3 68 -3 67 151 0 150 0 0 -65 c0 -59 -2 -67 -22 -75 -22 -8 -22 -9
5 -9 l28 -1 -3 83 -3 82 -150 3 c-109 2 -154 -1 -163 -10z"/>
<path d="M130 335 c0 -9 7 -18 15 -21 8 -4 15 -11 15 -16 0 -6 -7 -7 -16 -4
-8 3 -12 2 -9 -4 8 -13 32 -13 41 1 4 7 -4 20 -17 31 -16 14 -18 18 -6 14 9
-3 17 -1 17 4 0 6 -9 10 -20 10 -11 0 -20 -7 -20 -15z"/>
<path d="M190 315 c0 -30 3 -35 23 -34 16 1 18 2 5 6 -10 2 -18 8 -18 13 0 5
8 11 18 13 16 4 16 5 0 6 -10 0 -18 5 -18 10 0 5 8 12 18 14 13 4 11 5 -5 6
-20 1 -23 -4 -23 -34z"/>
<path d="M242 318 c2 -24 8 -33 23 -35 11 -2 14 0 8 3 -7 3 -13 19 -13 35 0
16 -5 29 -11 29 -6 0 -9 -14 -7 -32z"/>
<path d="M292 318 c2 -27 8 -33 28 -35 14 -1 18 0 8 3 -12 4 -18 15 -18 35 0
16 -5 29 -11 29 -6 0 -9 -14 -7 -32z"/>
<path d="M305 210 c6 -46 5 -50 -14 -50 -30 0 -26 -28 4 -36 14 -3 33 -19 42
-35 17 -28 27 -30 81 -13 16 5 16 108 -1 122 -6 6 -28 12 -47 14 -27 2 -36 8
-38 26 -2 12 -10 22 -19 22 -12 0 -14 -9 -8 -50z"/>
</g>
</svg>
